<svg xmlns="http://www.w3.org/2000/svg" viewBox="0 0 1300 1080" width="1300" height="1080" preserveAspectRatio="xMidYMid meet" style="width: 100%; height: 100%;"><defs><clipPath id="__lottie_element_2"><rect width="1300" height="1080" x="0" y="0"></rect></clipPath></defs><g clip-path="url(#__lottie_element_2)"><g transform="matrix(1,0,0,1,0,0)" opacity="1" style="display: block;"><g opacity="1" transform="matrix(1,0,0,1,545.3579711914062,526.4089965820312)"><path fill="rgb(255,174,2)" fill-opacity="1" d=" M270.1289978027344,0 C270.1289978027344,149.18800354003906 149.18800354003906,270.12799072265625 0.0010000000474974513,270.12799072265625 C-149.18699645996094,270.12799072265625 -270.12799072265625,149.18800354003906 -270.12799072265625,0 C-270.12799072265625,-149.18800354003906 -149.18699645996094,-270.12799072265625 0.0010000000474974513,-270.12799072265625 C149.18800354003906,-270.12799072265625 270.1289978027344,-149.18800354003906 270.1289978027344,0z"></path></g><g opacity="1" transform="matrix(1,0,0,1,574.6950073242188,547.4149780273438)"><path fill="rgb(254,108,48)" fill-opacity="0.5" d=" M240.78399658203125,-21.0049991607666 C240.78399658203125,128.1750030517578 119.85299682617188,249.1199951171875 -29.340999603271484,249.1199951171875 C-114.9800033569336,249.1199951171875 -191.30099487304688,209.26600646972656 -240.78500366210938,147.1060028076172 C-198.95399475097656,173.70599365234375 -149.30599975585938,189.11599731445312 -96.06300354003906,189.11599731445312 C53.13199996948242,189.11599731445312 174.06199645996094,68.18499755859375 174.06199645996094,-81.01000213623047 C174.06199645996094,-144.55099487304688 152.12899780273438,-202.97999572753906 115.37999725341797,-249.1199951171875 C190.76499938964844,-201.21099853515625 240.78399658203125,-116.95600128173828 240.78399658203125,-21.0049991607666z"></path></g><g opacity="1" transform="matrix(1,0,0,1,387.3590087890625,404.4779968261719)"><path fill="rgb(254,108,48)" fill-opacity="0.5" d=" M43.81999969482422,-31.261999130249023 C43.81999969482422,-31.261999130249023 17.93400001525879,-16.58799934387207 7.053999900817871,6.229000091552734 C-3.8259999752044678,29.047000885009766 -7.439000129699707,61.03900146484375 -35.32500076293945,51.80699920654297 C-63.209999084472656,42.57400131225586 -47.26900100708008,5.915999889373779 -34.05699920654297,-10.737000465393066 C-20.844999313354492,-27.391000747680664 24.077999114990234,-55.500999450683594 37.643001556396484,-53.31700134277344 C51.20800018310547,-51.13199996948242 55.81100082397461,-39.577999114990234 43.81999969482422,-31.261999130249023z"></path></g><g opacity="1" transform="matrix(1,0,0,1,689.5919799804688,513.3350219726562)"><path fill="rgb(254,108,48)" fill-opacity="0.5" d=" M11.932999610900879,0 C11.932999610900879,6.591000080108643 6.590000152587891,11.932999610900879 0,11.932999610900879 C-6.591000080108643,11.932999610900879 -11.934000015258789,6.591000080108643 -11.934000015258789,0 C-11.934000015258789,-6.591000080108643 -6.591000080108643,-11.932999610900879 0,-11.932999610900879 C6.590000152587891,-11.932999610900879 11.932999610900879,-6.591000080108643 11.932999610900879,0z"></path></g><g opacity="1" transform="matrix(1,0,0,1,649.1300048828125,563.02099609375)"><path fill="rgb(254,108,48)" fill-opacity="0.5" d=" M47.68299865722656,0 C47.68299865722656,18.424999237060547 26.333999633789062,33.361000061035156 0,33.361000061035156 C-26.334999084472656,33.361000061035156 -47.683998107910156,18.424999237060547 -47.683998107910156,0 C-47.683998107910156,-18.423999786376953 -26.334999084472656,-33.361000061035156 0,-33.361000061035156 C26.333999633789062,-33.361000061035156 47.68299865722656,-18.423999786376953 47.68299865722656,0z"></path></g><g opacity="1" transform="matrix(1,0,0,1,713.458984375,535.72900390625)"><path fill="rgb(254,108,48)" fill-opacity="0.5" d=" M10.763999938964844,5.1529998779296875 C6.519000053405762,14.020000457763672 -1.7410000562667847,18.899999618530273 -7.684999942779541,16.05500030517578 C-13.630000114440918,13.208999633789062 -15.008000373840332,3.7139999866485596 -10.762999534606934,-5.1529998779296875 C-6.51800012588501,-14.019000053405762 1.7419999837875366,-18.899999618530273 7.685999870300293,-16.054000854492188 C13.630999565124512,-13.208000183105469 15.008999824523926,-3.7139999866485596 10.763999938964844,5.1529998779296875z"></path></g><g opacity="1" transform="matrix(1,0,0,1,451.8739929199219,336.0790100097656)"><path fill="rgb(254,108,48)" fill-opacity="0.5" d=" M11.873000144958496,0 C11.873000144958496,4.5879998207092285 6.557000160217285,8.307000160217285 0,8.307000160217285 C-6.557000160217285,8.307000160217285 -11.873000144958496,4.5879998207092285 -11.873000144958496,0 C-11.873000144958496,-4.5879998207092285 -6.557000160217285,-8.307000160217285 0,-8.307000160217285 C6.557000160217285,-8.307000160217285 11.873000144958496,-4.5879998207092285 11.873000144958496,0z"></path></g></g><g transform="matrix(-0.21377287805080414,0.9768834114074707,-0.9768834114074707,-0.21377287805080414,1171.94921875,111.21636962890625)" opacity="1" style="display: block;"><g opacity="1" transform="matrix(1,0,0,1,539.083984375,115.35800170898438)"><path fill="rgb(254,108,48)" fill-opacity="1" d=" M-11.326000213623047,-85.43000030517578 C-11.326000213623047,-85.43000030517578 -44.70199966430664,84.072998046875 -44.70199966430664,84.072998046875 C-46.106998443603516,91.20700073242188 -40.64699935913086,97.84700012207031 -33.375999450683594,97.84700012207031 C-33.375999450683594,97.84700012207031 0.0010000000474974513,97.84700012207031 0.0010000000474974513,97.84700012207031 C0.0010000000474974513,97.84700012207031 33.37699890136719,97.84700012207031 33.37699890136719,97.84700012207031 C40.64799880981445,97.84700012207031 46.106998443603516,91.20700073242188 44.702999114990234,84.072998046875 C44.702999114990234,84.072998046875 11.32699966430664,-85.43000030517578 11.32699966430664,-85.43000030517578 C8.881999969482422,-97.8479995727539 -8.880999565124512,-97.8479995727539 -11.326000213623047,-85.43000030517578z"></path></g><g opacity="1" transform="matrix(1,0,0,1,348.0150146484375,178.3679962158203)"><path fill="rgb(255,174,2)" fill-opacity="1" d=" M-66.98100280761719,-76.26000213623047 C-66.98100280761719,-76.26000213623047 -11.13599967956543,87.21900177001953 -11.13599967956543,87.21900177001953 C-8.78600025177002,94.0989990234375 -0.7369999885559082,97.11900329589844 5.559999942779541,93.48400115966797 C5.559999942779541,93.48400115966797 34.465999603271484,76.7969970703125 34.465999603271484,76.7969970703125 C34.465999603271484,76.7969970703125 63.367000579833984,60.11000061035156 63.367000579833984,60.11000061035156 C69.66400146484375,56.4739990234375 71.072998046875,47.99300003051758 66.28900146484375,42.518001556396484 C66.28900146484375,42.518001556396484 -47.36199951171875,-87.58599853515625 -47.36199951171875,-87.58599853515625 C-55.68899917602539,-97.11900329589844 -71.072998046875,-88.23699951171875 -66.98100280761719,-76.26000213623047z"></path></g><g opacity="1" transform="matrix(1,0,0,1,191.0399932861328,335.343994140625)"><path fill="rgb(254,108,48)" fill-opacity="1" d=" M-87.58799743652344,-47.367000579833984 C-87.58799743652344,-47.367000579833984 42.51599884033203,66.29299926757812 42.51599884033203,66.29299926757812 C47.99100112915039,71.0770034790039 56.472999572753906,69.66799926757812 60.108001708984375,63.37099838256836 C60.108001708984375,63.37099838256836 76.7979965209961,34.46500015258789 76.7979965209961,34.46500015258789 C76.7979965209961,34.46500015258789 93.48500061035156,5.559000015258789 93.48500061035156,5.559000015258789 C97.12000274658203,-0.7379999756813049 94.0999984741211,-8.786999702453613 87.21900177001953,-11.13700008392334 C87.21900177001953,-11.13700008392334 -76.26100158691406,-66.98500061035156 -76.26100158691406,-66.98500061035156 C-88.23799896240234,-71.0770034790039 -97.12000274658203,-55.694000244140625 -87.58799743652344,-47.367000579833984z"></path></g><g opacity="1" transform="matrix(1,0,0,1,128.02999877929688,526.4119873046875)"><path fill="rgb(255,174,2)" fill-opacity="1" d=" M-85.427001953125,11.321999549865723 C-85.427001953125,11.321999549865723 84.06700134277344,44.70000076293945 84.06700134277344,44.70000076293945 C91.20099639892578,46.104000091552734 97.84100341796875,40.64400100708008 97.84100341796875,33.37300109863281 C97.84100341796875,33.37300109863281 97.84100341796875,-0.006000000052154064 97.84100341796875,-0.006000000052154064 C97.84100341796875,-0.006000000052154064 97.84500122070312,-33.37200164794922 97.84500122070312,-33.37200164794922 C97.84600067138672,-40.64400100708008 91.20600128173828,-46.10499954223633 84.07099914550781,-44.70100021362305 C84.07099914550781,-44.70100021362305 -85.4260025024414,-11.331000328063965 -85.4260025024414,-11.331000328063965 C-97.84500122070312,-8.88700008392334 -97.84600067138672,8.87600040435791 -85.427001953125,11.321999549865723z"></path></g><g opacity="1" transform="matrix(1,0,0,1,191.03799438476562,717.47900390625)"><path fill="rgb(254,108,48)" fill-opacity="1" d=" M-76.25700378417969,66.98200225830078 C-76.25700378417969,66.98200225830078 87.21499633789062,11.140000343322754 87.21499633789062,11.140000343322754 C94.09500122070312,8.788999557495117 97.11599731445312,0.7400000095367432 93.48100280761719,-5.556000232696533 C93.48100280761719,-5.556000232696533 76.79299926757812,-34.4630012512207 76.79299926757812,-34.4630012512207 C76.79299926757812,-34.4630012512207 60.11399841308594,-63.36600112915039 60.11399841308594,-63.36600112915039 C56.479000091552734,-69.66400146484375 47.99700164794922,-71.0739974975586 42.52000045776367,-66.28900146484375 C42.52000045776367,-66.28900146484375 -87.58399963378906,47.36399841308594 -87.58399963378906,47.36399841308594 C-97.11599731445312,55.689998626708984 -88.23400115966797,71.0739974975586 -76.25700378417969,66.98200225830078z"></path></g><g opacity="1" transform="matrix(1,0,0,1,348.0150146484375,874.4530029296875)"><path fill="rgb(255,174,2)" fill-opacity="1" d=" M-47.361000061035156,87.58399963378906 C-47.361000061035156,87.58399963378906 66.28800201416016,-42.51300048828125 66.28800201416016,-42.51300048828125 C71.07099914550781,-47.98899841308594 69.66300201416016,-56.470001220703125 63.36600112915039,-60.10599899291992 C63.36600112915039,-60.10599899291992 34.459999084472656,-76.79299926757812 34.459999084472656,-76.79299926757812 C34.459999084472656,-76.79299926757812 5.565000057220459,-93.47799682617188 5.565000057220459,-93.47799682617188 C-0.7310000061988831,-97.11499786376953 -8.781000137329102,-94.09400177001953 -11.131999969482422,-87.21399688720703 C-11.131999969482422,-87.21399688720703 -66.97899627685547,76.25700378417969 -66.97899627685547,76.25700378417969 C-71.07099914550781,88.23400115966797 -55.6879997253418,97.11599731445312 -47.361000061035156,87.58399963378906z"></path></g><g opacity="1" transform="matrix(1,0,0,1,730.1519775390625,874.4530029296875)"><path fill="rgb(255,174,2)" fill-opacity="1" d=" M66.97899627685547,76.25499725341797 C66.97899627685547,76.25499725341797 11.13599967956543,-87.21399688720703 11.13599967956543,-87.21399688720703 C8.78499984741211,-94.09500122070312 0.7360000014305115,-97.11399841308594 -5.560999870300293,-93.47899627685547 C-5.560999870300293,-93.47899627685547 -34.46099853515625,-76.79199981689453 -34.46099853515625,-76.79199981689453 C-34.46099853515625,-76.79199981689453 -63.362998962402344,-60.117000579833984 -63.362998962402344,-60.117000579833984 C-69.66100311279297,-56.481998443603516 -71.07099914550781,-48 -66.28700256347656,-42.52299880981445 C-66.28700256347656,-42.52299880981445 47.36000061035156,87.58100128173828 47.36000061035156,87.58100128173828 C55.6870002746582,97.11399841308594 71.07099914550781,88.23300170898438 66.97899627685547,76.25499725341797z"></path></g><g opacity="1" transform="matrix(1,0,0,1,887.1240234375,717.4769897460938)"><path fill="rgb(254,108,48)" fill-opacity="1" d=" M87.58300018310547,47.36199951171875 C87.58300018310547,47.36199951171875 -42.516998291015625,-66.28700256347656 -42.516998291015625,-66.28700256347656 C-47.99300003051758,-71.07099914550781 -56.47600173950195,-69.66100311279297 -60.11000061035156,-63.362998962402344 C-60.11000061035156,-63.362998962402344 -76.78900146484375,-34.46099853515625 -76.78900146484375,-34.46099853515625 C-76.78900146484375,-34.46099853515625 -93.47799682617188,-5.566999912261963 -93.47799682617188,-5.566999912261963 C-97.11499786376953,0.7300000190734863 -94.09500122070312,8.781000137329102 -87.21399688720703,11.131999969482422 C-87.21399688720703,11.131999969482422 76.25599670410156,66.9800033569336 76.25599670410156,66.9800033569336 C88.23400115966797,71.0719985961914 97.11499786376953,55.68899917602539 87.58300018310547,47.36199951171875z"></path></g><g opacity="1" transform="matrix(1,0,0,1,950.135009765625,526.406982421875)"><path fill="rgb(255,174,2)" fill-opacity="1" d=" M85.427001953125,-11.32699966430664 C85.427001953125,-11.32699966430664 -84.07099914550781,-44.70000076293945 -84.07099914550781,-44.70000076293945 C-91.20500183105469,-46.10499954223633 -97.84600067138672,-40.64400100708008 -97.84500122070312,-33.37200164794922 C-97.84500122070312,-33.37200164794922 -97.84100341796875,0 -97.84100341796875,0 C-97.84100341796875,0 -97.84500122070312,33.37200164794922 -97.84500122070312,33.37200164794922 C-97.84600067138672,40.64400100708008 -91.20500183105469,46.10499954223633 -84.07099914550781,44.70000076293945 C-84.07099914550781,44.70000076293945 85.427001953125,11.326000213623047 85.427001953125,11.326000213623047 C97.84600067138672,8.880999565124512 97.84600067138672,-8.881999969482422 85.427001953125,-11.32699966430664z"></path></g><g opacity="1" transform="matrix(1,0,0,1,887.1209716796875,335.3389892578125)"><path fill="rgb(254,108,48)" fill-opacity="1" d=" M76.26000213623047,-66.97899627685547 C76.26000213623047,-66.97899627685547 -87.21700286865234,-11.133000373840332 -87.21700286865234,-11.133000373840332 C-94.0979995727539,-8.782999992370605 -97.11900329589844,-0.7319999933242798 -93.48200225830078,5.565000057220459 C-93.48200225830078,5.565000057220459 -76.79499816894531,34.45800018310547 -76.79499816894531,34.45800018310547 C-76.79499816894531,34.45800018310547 -60.108001708984375,63.3650016784668 -60.108001708984375,63.3650016784668 C-56.472999572753906,69.66200256347656 -47.992000579833984,71.06999969482422 -42.51599884033203,66.28700256347656 C-42.51599884033203,66.28700256347656 87.58599853515625,-47.35900115966797 87.58599853515625,-47.35900115966797 C97.11900329589844,-55.68600082397461 88.23799896240234,-71.07099914550781 76.26000213623047,-66.97899627685547z"></path></g><g opacity="1" transform="matrix(1,0,0,1,730.14697265625,178.3679962158203)"><path fill="rgb(255,174,2)" fill-opacity="1" d=" M47.36600112915039,-87.58799743652344 C47.36600112915039,-87.58799743652344 -66.29299926757812,42.518001556396484 -66.29299926757812,42.518001556396484 C-71.07599639892578,47.99399948120117 -69.66799926757812,56.474998474121094 -63.369998931884766,60.111000061035156 C-63.369998931884766,60.111000061035156 -34.46500015258789,76.7979965209961 -34.46500015258789,76.7979965209961 C-34.46500015258789,76.7979965209961 -5.560999870300293,93.48500061035156 -5.560999870300293,93.48500061035156 C0.7350000143051147,97.12000274658203 8.784000396728516,94.0989990234375 11.135000228881836,87.21900177001953 C11.135000228881836,87.21900177001953 66.98400115966797,-76.26100158691406 66.98400115966797,-76.26100158691406 C71.07599639892578,-88.23799896240234 55.69300079345703,-97.12000274658203 47.36600112915039,-87.58799743652344z"></path></g><g opacity="1" transform="matrix(1,0,0,1,539.0859985351562,937.4619750976562)"><path fill="rgb(254,108,48)" fill-opacity="1" d=" M11.326000213623047,85.4280014038086 C11.326000213623047,85.4280014038086 44.70100021362305,-84.06800079345703 44.70100021362305,-84.06800079345703 C46.10599899291992,-91.2020034790039 40.645999908447266,-97.84200286865234 33.375,-97.84200286865234 C33.375,-97.84200286865234 -0.0020000000949949026,-97.84200286865234 -0.0020000000949949026,-97.84200286865234 C-0.0020000000949949026,-97.84200286865234 -33.374000549316406,-97.84700012207031 -33.374000549316406,-97.84700012207031 C-40.64500045776367,-97.84700012207031 -46.106998443603516,-91.20700073242188 -44.70199966430664,-84.0719985961914 C-44.70199966430664,-84.0719985961914 -11.32800006866455,85.4280014038086 -11.32800006866455,85.4280014038086 C-8.883000373840332,97.84600067138672 8.880999565124512,97.84700012207031 11.326000213623047,85.4280014038086z"></path></g></g><g transform="matrix(1,0,0,1,0,-3.68310546875)" opacity="1" style="display: block;"><g opacity="1" transform="matrix(1,0,0,1,855.1820068359375,785.6710205078125)"><path fill="rgb(157,199,226)" fill-opacity="1" d=" M-107.9280014038086,-146.7550048828125 C-107.9280014038086,-146.7550048828125 -102.66300201416016,-240.2050018310547 -25.007999420166016,-246.78599548339844 C52.64799880981445,-253.36700439453125 98.71499633789062,-179.66000366210938 98.71499633789062,-179.66000366210938 C98.71499633789062,-179.66000366210938 180.31900024414062,-220.46200561523438 192.16400146484375,-136.22500610351562 C192.16400146484375,-136.22500610351562 317.2030029296875,-219.14599609375 384.3290100097656,-105.9530029296875 C384.3290100097656,-105.9530029296875 425.1310119628906,-32.24599838256836 355.37298583984375,8.555999755859375 C355.37298583984375,8.555999755859375 390.9100036621094,29.614999771118164 377.74798583984375,66.46900177001953 C364.58599853515625,103.3219985961914 315.8869934082031,91.47599792480469 315.8869934082031,91.47599792480469 C315.8869934082031,91.47599792480469 321.1520080566406,192.822998046875 210.59100341796875,213.8820037841797 C100.03099822998047,234.94200134277344 86.86900329589844,175.71299743652344 86.86900329589844,175.71299743652344 C86.86900329589844,175.71299743652344 67.1259994506836,219.14700317382812 -5.264999866485596,188.875 C-5.264999866485596,188.875 -28.95599937438965,253.3679962158203 -136.88400268554688,245.4709930419922 C-244.81199645996094,237.57400512695312 -255.3419952392578,128.3300018310547 -255.3419952392578,128.3300018310547 C-255.3419952392578,128.3300018310547 -294.8280029296875,165.18299865722656 -315.8869934082031,104.63800048828125 C-315.8869934082031,104.63800048828125 -425.1310119628906,109.90299987792969 -397.4909973144531,-13.819000244140625 C-369.85101318359375,-137.54200744628906 -223.7530059814453,-75.68000030517578 -223.7530059814453,-75.68000030517578 C-223.7530059814453,-75.68000030517578 -201.3780059814453,-105.9530029296875 -181.63499450683594,-88.84200286865234 C-181.63499450683594,-88.84200286865234 -190.84800720214844,-177.02699279785156 -107.9280014038086,-146.7550048828125z"></path></g><g opacity="1" transform="matrix(1,0,0,1,638.2680053710938,651.0040283203125)"><path fill="rgb(21,19,13)" fill-opacity="1" d=" M-175.69500732421875,109.83000183105469 C-175.11500549316406,106.48999786376953 -174,103.19200134277344 -172.8179931640625,100.0270004272461 C-169.9080047607422,92.22799682617188 -165.83099365234375,84.8499984741211 -160.77499389648438,78.23799896240234 C-153.74200439453125,69.04100036621094 -144.69200134277344,61.45800018310547 -134.48199462890625,56.01599884033203 C-120.44300079345703,48.534000396728516 -104.51499938964844,45.28300094604492 -88.71099853515625,44.75199890136719 C-64.77300262451172,43.94900131225586 -40.87099838256836,49.000999450683594 -18.13800048828125,56.119998931884766 C-14.45300006866455,57.27399826049805 -10.791999816894531,58.499000549316406 -7.1479997634887695,59.77399826049805 C-6.559000015258789,59.97999954223633 -5.5329999923706055,60.305999755859375 -5.093999862670898,59.672000885009766 C-2.9230000972747803,56.540000915527344 -0.23600000143051147,53.68199920654297 2.559000015258789,51.106998443603516 C7.690000057220459,46.37699890136719 14.121000289916992,42.04399871826172 21.288999557495117,41.59600067138672 C26.143999099731445,41.292999267578125 30.402000427246094,43.15599822998047 34.13199996948242,46.159000396728516 C34.57899856567383,46.51900100708008 37.12099838256836,47.52899932861328 37.04399871826172,46.2760009765625 C36.48099899291992,37.03200149536133 37.5890007019043,27.40999984741211 39.790000915527344,18.445999145507812 C43.611000061035156,2.8919999599456787 52.48699951171875,-12.217000007629395 68.93900299072266,-16.513999938964844 C82.1760025024414,-19.97100067138672 96.32599639892578,-16.20800018310547 108.677001953125,-11.300000190734863 C109.15799713134766,-11.109000205993652 110.74299621582031,-10.682000160217285 110.75199890136719,-11.63700008392334 C110.84600067138672,-21.048999786376953 112.64399719238281,-30.641000747680664 114.99500274658203,-39.7130012512207 C119.86799621582031,-58.525001525878906 128.8300018310547,-76.7490005493164 143.30499267578125,-90.02200317382812 C153.29200744628906,-99.18000030517578 165.45599365234375,-105.39299774169922 178.57000732421875,-108.67900085449219 C179.40699768066406,-108.88800048828125 178.74400329589844,-109.70800018310547 178.36700439453125,-110.00299835205078 C177.72799682617188,-110.50399780273438 176.67999267578125,-110.86199951171875 175.8679962158203,-110.65799713134766 C163.9770050048828,-107.67900085449219 152.73899841308594,-102.31900024414062 143.25799560546875,-94.50499725341797 C135.14199829101562,-87.81600189208984 128.44700622558594,-79.51000213623047 123.22000122070312,-70.40499877929688 C114.89199829101562,-55.900001525878906 110.06800079345703,-39.40399932861328 108.03900146484375,-22.85099983215332 C107.62100219726562,-19.440000534057617 107.25499725341797,-15.980999946594238 107.22100067138672,-12.539999961853027 C107.91200256347656,-12.652000427246094 108.6050033569336,-12.765000343322754 109.2969970703125,-12.876999855041504 C97.36599731445312,-17.617000579833984 84.06099700927734,-21.27899932861328 71.12200164794922,-19.45199966430664 C62.35200119018555,-18.21500015258789 54.32600021362305,-14.229000091552734 48.38800048828125,-7.60699987411499 C42.992000579833984,-1.5870000123977661 39.49800109863281,5.886000156402588 37.23699951171875,13.59000015258789 C35.250999450683594,20.358999252319336 34.17100143432617,27.37700080871582 33.689998626708984,34.40800094604492 C33.525001525878906,36.82500076293945 33.435001373291016,39.249000549316406 33.43299865722656,41.672000885009766 C33.43199920654297,42.75600051879883 33.2400016784668,44.14699935913086 33.505001068115234,45.21200180053711 C33.516998291015625,45.26100158691406 33.512001037597656,45.321998596191406 33.51499938964844,45.37300109863281 C34.486000061035156,45.4119987487793 35.45600128173828,45.45100021362305 36.426998138427734,45.4900016784668 C29.25,39.71200180053711 20.0939998626709,37.81999969482422 11.46399974822998,41.35100173950195 C4.818999767303467,44.069000244140625 -0.8069999814033508,48.96500015258789 -5.455999851226807,54.3489990234375 C-6.551000118255615,55.617000579833984 -7.627999782562256,56.92300033569336 -8.583000183105469,58.301998138427734 C-7.89900016784668,58.266998291015625 -7.214000225067139,58.231998443603516 -6.5289998054504395,58.198001861572266 C-30.827999114990234,49.69599914550781 -56.28200149536133,43.24599838256836 -82.13800048828125,42.63100051879883 C-99.08499908447266,42.22700119018555 -116.40499877929688,44.542999267578125 -131.98300170898438,51.494998931884766 C-143.21800231933594,56.50899887084961 -153.30299377441406,63.8390007019043 -161.30599975585938,73.20099639892578 C-167.14300537109375,80.02899932861328 -171.8820037841797,87.78700256347656 -175.302001953125,96.09400177001953 C-176.3979949951172,98.75599670410156 -177.36300659179688,101.4749984741211 -178.156005859375,104.24299621582031 C-178.50799560546875,105.4729995727539 -179.1269989013672,106.98200225830078 -179.15199279785156,108.27899932861328 C-179.1529998779297,108.33799743652344 -179.1750030517578,108.4010009765625 -179.18600463867188,108.45899963378906 C-179.406005859375,109.72699737548828 -175.87399291992188,110.86100006103516 -175.69500732421875,109.83000183105469z"></path></g></g></g></svg>